<svg width="54" height="40" viewBox="0 0 54 40" fill="none" xmlns="http://www.w3.org/2000/svg">
<g filter="url(#filter0_d_513_4)">
<path d="M2.18366 12.5133C1.88154 7.57669 1.73049 5.10838 3.19982 3.54638C4.66915 1.98438 7.14208 1.98438 12.0879 1.98438H36.9652C42.1919 1.98438 44.8053 1.98438 46.2861 3.65754C47.767 5.33071 47.4495 7.92471 46.8145 13.1127L45.3571 25.0201C44.8492 29.1701 44.5952 31.2451 43.1872 32.4912C41.7792 33.7374 39.6887 33.7374 35.5078 33.7374H12.8167C8.39407 33.7374 6.18278 33.7374 4.75018 32.3898C3.31758 31.0422 3.18251 28.835 2.91236 24.4207L2.18366 12.5133Z" fill="url(#paint0_linear_513_4)"/>
</g>
<defs>
<filter id="filter0_d_513_4" x="5.45979e-05" y="-0.000189543" width="53.2993" height="39.6912" filterUnits="userSpaceOnUse" color-interpolation-filters="sRGB">
<feFlood flood-opacity="0" result="BackgroundImageFix"/>
<feColorMatrix in="SourceAlpha" type="matrix" values="0 0 0 0 0 0 0 0 0 0 0 0 0 0 0 0 0 0 127 0" result="hardAlpha"/>
<feOffset dx="1.98456" dy="1.98456"/>
<feGaussianBlur stdDeviation="1.98456"/>
<feComposite in2="hardAlpha" operator="out"/>
<feColorMatrix type="matrix" values="0 0 0 0 0 0 0 0 0 0 0 0 0 0 0 0 0 0 0.25 0"/>
<feBlend mode="normal" in2="BackgroundImageFix" result="effect1_dropShadow_513_4"/>
<feBlend mode="normal" in="SourceGraphic" in2="effect1_dropShadow_513_4" result="shape"/>
</filter>
<linearGradient id="paint0_linear_513_4" x1="9.50177" y1="6.44964" x2="35.3425" y2="33.7933" gradientUnits="userSpaceOnUse">
<stop stop-color="#0058A1"/>
<stop offset="1" stop-color="#046BC0"/>
</linearGradient>
</defs>
</svg>
