<svg width="39" height="9" viewBox="0 0 39 9" fill="none" xmlns="http://www.w3.org/2000/svg">
<g clip-path="url(#clip0_674_590)">
<path d="M2.41699 4.83333C3.44199 5.6875 4.46699 6.54167 6.68783 6.54167C10.9587 6.54167 10.9587 3.125 15.2295 3.125C19.6712 3.125 19.3295 6.54167 23.7712 6.54167C28.042 6.54167 28.042 3.125 32.3128 3.125C34.5337 3.125 35.5587 3.97917 36.5837 4.83333M2.41699 15.0833C3.44199 15.9375 4.46699 16.7917 6.68783 16.7917C10.9587 16.7917 10.9587 13.375 15.2295 13.375C19.6712 13.375 19.3295 16.7917 23.7712 16.7917C28.042 16.7917 28.042 13.375 32.3128 13.375C34.5337 13.375 35.5587 14.2292 36.5837 15.0833M2.41699 25.3333C3.44199 26.1875 4.46699 27.0417 6.68783 27.0417C10.9587 27.0417 10.9587 23.625 15.2295 23.625C19.6712 23.625 19.3295 27.0417 23.7712 27.0417C28.042 27.0417 28.042 23.625 32.3128 23.625C34.5337 23.625 35.5587 24.4792 36.5837 25.3333" stroke="#2AD2C1" stroke-width="3.41667" stroke-linecap="round" stroke-linejoin="round"/>
</g>
<defs>
<clipPath id="clip0_674_590">
<rect width="39" height="9" fill="white"/>
</clipPath>
</defs>
</svg>
